<svg xmlns="http://www.w3.org/2000/svg" width="375" viewBox="0 0 375 375" height="375" version="1.0"><g fill="#00C2CB"><g><g><path d="M 2.886719 -23.167969 C 2.886719 -46.207031 16.75 -59.8125 25.992188 -62.1875 C 26.375 -39.535156 16.042969 -8.792969 9.175781 0 L 46.207031 0 C 39.339844 -8.792969 29.007812 -39.535156 29.007812 -62.1875 C 38.3125 -59.8125 52.175781 -46.207031 52.175781 -23.167969 L 53.78125 -23.167969 L 53.78125 -64.175781 L 1.285156 -64.175781 L 1.285156 -23.167969 Z M 2.886719 -23.167969" transform="translate(16.676 190.618)"/></g></g></g><g fill="#00C2CB"><g><g><path d="M 1.925781 -42.421875 L 1.925781 0 L 24.066406 0 C 24.773438 -1.667969 25.027344 -3.464844 25.027344 -5.261719 C 25.027344 -13.285156 18.417969 -22.847656 13.605469 -32.089844 L 29.777344 -32.089844 L 29.777344 0 L 52.882812 0 L 52.882812 -64.175781 L 22.65625 -64.175781 C 6.355469 -64.175781 1.925781 -51.535156 1.925781 -42.421875 Z M 8.601562 -47.8125 C 8.601562 -52.113281 10.332031 -61.480469 20.664062 -61.480469 C 24.835938 -61.480469 26.761719 -61.480469 29.777344 -61.480469 L 29.777344 -34.335938 L 12.515625 -34.335938 C 10.203125 -39.019531 8.601562 -43.578125 8.601562 -47.8125 Z M 8.601562 -47.8125" transform="translate(71.735 190.618)"/></g></g></g><g fill="#00C2CB"><g><g><path d="M 2.886719 -23.167969 C 2.886719 -46.207031 16.75 -59.8125 25.992188 -62.1875 C 26.375 -39.535156 16.042969 -8.792969 9.175781 0 L 46.207031 0 C 39.339844 -8.792969 29.007812 -39.535156 29.007812 -62.1875 C 38.3125 -59.8125 52.175781 -46.207031 52.175781 -23.167969 L 53.78125 -23.167969 L 53.78125 -64.175781 L 1.285156 -64.175781 L 1.285156 -23.167969 Z M 2.886719 -23.167969" transform="translate(126.474 190.618)"/></g></g></g><g fill="#00C2CB"><g><g><path d="M 1.925781 0 L 25.027344 0 L 25.027344 -32.089844 L 33.820312 -32.089844 L 33.820312 0 L 56.925781 0 L 56.925781 -64.175781 L 33.820312 -64.175781 L 33.820312 -34.335938 L 25.027344 -34.335938 L 25.027344 -64.175781 L 1.925781 -64.175781 Z M 1.925781 0" transform="translate(181.533 190.618)"/></g></g></g><g fill="#00C2CB"><g><g><path d="M 0 -64.175781 L 20.472656 -25.992188 L 20.410156 0 L 42.679688 0 L 42.742188 -25.992188 L 63.214844 -64.175781 L 40.046875 -64.175781 C 38.441406 -64.175781 37.351562 -62.316406 37.351562 -60.519531 C 37.351562 -54.488281 43.578125 -48.324219 43.578125 -37.351562 C 43.578125 -34.398438 42.355469 -30.675781 41.457031 -28.878906 L 22.269531 -64.175781 Z M 0 -64.175781" transform="translate(240.379 190.618)"/></g></g></g><g fill="#00C2CB"><g><g><path d="M 1.925781 -42.421875 L 1.925781 0 L 24.066406 0 C 24.773438 -1.667969 25.027344 -3.464844 25.027344 -5.261719 C 25.027344 -13.285156 18.417969 -22.847656 13.605469 -32.089844 L 29.777344 -32.089844 L 29.777344 0 L 52.882812 0 L 52.882812 -64.175781 L 22.65625 -64.175781 C 6.355469 -64.175781 1.925781 -51.535156 1.925781 -42.421875 Z M 8.601562 -47.8125 C 8.601562 -52.113281 10.332031 -61.480469 20.664062 -61.480469 C 24.835938 -61.480469 26.761719 -61.480469 29.777344 -61.480469 L 29.777344 -34.335938 L 12.515625 -34.335938 C 10.203125 -39.019531 8.601562 -43.578125 8.601562 -47.8125 Z M 8.601562 -47.8125" transform="translate(303.588 190.618)"/></g></g></g><g fill="#00C2CB"><g><g><path d="M 13.625 -5.34375 C 13.519531 -4.519531 13.304688 -3.765625 12.984375 -3.078125 C 12.671875 -2.390625 12.257812 -1.800781 11.75 -1.3125 C 11.238281 -0.820312 10.632812 -0.4375 9.9375 -0.15625 C 9.25 0.113281 8.476562 0.25 7.625 0.25 C 6.894531 0.25 6.226562 0.144531 5.625 -0.0625 C 5.03125 -0.269531 4.5 -0.554688 4.03125 -0.921875 C 3.5625 -1.285156 3.15625 -1.71875 2.8125 -2.21875 C 2.476562 -2.71875 2.195312 -3.257812 1.96875 -3.84375 C 1.75 -4.425781 1.582031 -5.039062 1.46875 -5.6875 C 1.363281 -6.332031 1.3125 -6.984375 1.3125 -7.640625 L 1.3125 -10.109375 C 1.3125 -10.765625 1.363281 -11.414062 1.46875 -12.0625 C 1.582031 -12.707031 1.75 -13.320312 1.96875 -13.90625 C 2.195312 -14.488281 2.476562 -15.03125 2.8125 -15.53125 C 3.15625 -16.03125 3.5625 -16.460938 4.03125 -16.828125 C 4.5 -17.203125 5.03125 -17.488281 5.625 -17.6875 C 6.21875 -17.894531 6.882812 -18 7.625 -18 C 8.507812 -18 9.300781 -17.863281 10 -17.59375 C 10.695312 -17.320312 11.296875 -16.9375 11.796875 -16.4375 C 12.304688 -15.9375 12.710938 -15.335938 13.015625 -14.640625 C 13.328125 -13.941406 13.53125 -13.171875 13.625 -12.328125 L 11.375 -12.328125 C 11.300781 -12.859375 11.171875 -13.351562 10.984375 -13.8125 C 10.804688 -14.28125 10.566406 -14.6875 10.265625 -15.03125 C 9.972656 -15.382812 9.609375 -15.660156 9.171875 -15.859375 C 8.734375 -16.066406 8.21875 -16.171875 7.625 -16.171875 C 7.082031 -16.171875 6.609375 -16.082031 6.203125 -15.90625 C 5.796875 -15.726562 5.441406 -15.488281 5.140625 -15.1875 C 4.847656 -14.882812 4.597656 -14.535156 4.390625 -14.140625 C 4.191406 -13.742188 4.03125 -13.320312 3.90625 -12.875 C 3.789062 -12.425781 3.707031 -11.96875 3.65625 -11.5 C 3.601562 -11.03125 3.578125 -10.578125 3.578125 -10.140625 L 3.578125 -7.640625 C 3.578125 -7.203125 3.601562 -6.75 3.65625 -6.28125 C 3.707031 -5.8125 3.789062 -5.347656 3.90625 -4.890625 C 4.03125 -4.441406 4.191406 -4.019531 4.390625 -3.625 C 4.585938 -3.226562 4.835938 -2.875 5.140625 -2.5625 C 5.441406 -2.257812 5.796875 -2.019531 6.203125 -1.84375 C 6.609375 -1.664062 7.082031 -1.578125 7.625 -1.578125 C 8.21875 -1.578125 8.734375 -1.671875 9.171875 -1.859375 C 9.609375 -2.046875 9.972656 -2.304688 10.265625 -2.640625 C 10.566406 -2.984375 10.804688 -3.382812 10.984375 -3.84375 C 11.171875 -4.300781 11.300781 -4.800781 11.375 -5.34375 Z M 13.625 -5.34375" transform="translate(100.495 237.615)"/></g></g></g><g fill="#00C2CB"><g><g><path d="M 4.671875 -1.921875 L 13.359375 -1.921875 L 13.359375 0 L 2.421875 0 L 2.421875 -17.765625 L 4.671875 -17.765625 Z M 4.671875 -1.921875" transform="translate(119.234 237.615)"/></g></g></g><g fill="#00C2CB"><g><g><path d="M 13.671875 -7.859375 C 13.660156 -7.222656 13.601562 -6.582031 13.5 -5.9375 C 13.40625 -5.289062 13.25 -4.664062 13.03125 -4.0625 C 12.820312 -3.457031 12.550781 -2.894531 12.21875 -2.375 C 11.894531 -1.851562 11.503906 -1.394531 11.046875 -1 C 10.597656 -0.613281 10.078125 -0.304688 9.484375 -0.078125 C 8.890625 0.140625 8.226562 0.25 7.5 0.25 C 6.769531 0.25 6.109375 0.140625 5.515625 -0.078125 C 4.929688 -0.304688 4.410156 -0.613281 3.953125 -1 C 3.492188 -1.394531 3.097656 -1.851562 2.765625 -2.375 C 2.429688 -2.90625 2.15625 -3.472656 1.9375 -4.078125 C 1.726562 -4.679688 1.570312 -5.300781 1.46875 -5.9375 C 1.363281 -6.582031 1.304688 -7.222656 1.296875 -7.859375 L 1.296875 -9.875 C 1.304688 -10.507812 1.359375 -11.148438 1.453125 -11.796875 C 1.554688 -12.441406 1.710938 -13.066406 1.921875 -13.671875 C 2.140625 -14.273438 2.414062 -14.835938 2.75 -15.359375 C 3.082031 -15.890625 3.472656 -16.347656 3.921875 -16.734375 C 4.378906 -17.128906 4.898438 -17.4375 5.484375 -17.65625 C 6.078125 -17.882812 6.742188 -18 7.484375 -18 C 8.210938 -18 8.875 -17.882812 9.46875 -17.65625 C 10.0625 -17.4375 10.582031 -17.132812 11.03125 -16.75 C 11.488281 -16.363281 11.882812 -15.90625 12.21875 -15.375 C 12.550781 -14.851562 12.820312 -14.289062 13.03125 -13.6875 C 13.25 -13.082031 13.40625 -12.453125 13.5 -11.796875 C 13.601562 -11.148438 13.660156 -10.507812 13.671875 -9.875 Z M 11.4375 -9.90625 C 11.4375 -10.332031 11.410156 -10.773438 11.359375 -11.234375 C 11.304688 -11.691406 11.222656 -12.144531 11.109375 -12.59375 C 10.992188 -13.039062 10.835938 -13.46875 10.640625 -13.875 C 10.441406 -14.289062 10.195312 -14.65625 9.90625 -14.96875 C 9.613281 -15.28125 9.265625 -15.53125 8.859375 -15.71875 C 8.460938 -15.90625 8.003906 -16 7.484375 -16 C 6.960938 -16 6.5 -15.90625 6.09375 -15.71875 C 5.695312 -15.53125 5.351562 -15.28125 5.0625 -14.96875 C 4.769531 -14.65625 4.523438 -14.289062 4.328125 -13.875 C 4.128906 -13.46875 3.972656 -13.035156 3.859375 -12.578125 C 3.742188 -12.128906 3.660156 -11.675781 3.609375 -11.21875 C 3.554688 -10.757812 3.523438 -10.320312 3.515625 -9.90625 L 3.515625 -7.859375 C 3.523438 -7.441406 3.554688 -7 3.609375 -6.53125 C 3.660156 -6.070312 3.742188 -5.613281 3.859375 -5.15625 C 3.984375 -4.707031 4.144531 -4.273438 4.34375 -3.859375 C 4.539062 -3.453125 4.785156 -3.09375 5.078125 -2.78125 C 5.367188 -2.46875 5.710938 -2.21875 6.109375 -2.03125 C 6.503906 -1.84375 6.96875 -1.75 7.5 -1.75 C 8.03125 -1.75 8.492188 -1.84375 8.890625 -2.03125 C 9.296875 -2.21875 9.644531 -2.46875 9.9375 -2.78125 C 10.226562 -3.09375 10.46875 -3.453125 10.65625 -3.859375 C 10.84375 -4.273438 10.992188 -4.707031 11.109375 -5.15625 C 11.234375 -5.601562 11.316406 -6.054688 11.359375 -6.515625 C 11.410156 -6.984375 11.4375 -7.429688 11.4375 -7.859375 Z M 11.4375 -9.90625" transform="translate(137.973 237.615)"/></g></g></g><g fill="#00C2CB"><g><g><path d="M 14.109375 -15.828125 L 8.609375 -15.828125 L 8.609375 0 L 6.421875 0 L 6.421875 -15.828125 L 0.921875 -15.828125 L 0.921875 -17.765625 L 14.109375 -17.765625 Z M 14.109375 -15.828125" transform="translate(156.712 237.615)"/></g></g></g><g fill="#00C2CB"><g><g><path d="M 13.265625 0 L 11.125 0 L 11.125 -8.203125 L 3.84375 -8.203125 L 3.84375 0 L 1.71875 0 L 1.71875 -17.765625 L 3.84375 -17.765625 L 3.84375 -10.125 L 11.125 -10.125 L 11.125 -17.765625 L 13.265625 -17.765625 Z M 13.265625 0" transform="translate(175.452 237.615)"/></g></g></g><g fill="#00C2CB"><g><g><path d="M 2.125 -17.765625 L 12.859375 -17.765625 L 12.859375 -15.796875 L 8.59375 -15.796875 L 8.59375 -1.953125 L 12.859375 -1.953125 L 12.859375 0 L 2.125 0 L 2.125 -1.953125 L 6.28125 -1.953125 L 6.28125 -15.796875 L 2.125 -15.796875 Z M 2.125 -17.765625" transform="translate(194.19 237.615)"/></g></g></g><g fill="#00C2CB"><g><g><path d="M 13.25 0 L 10.953125 0 L 4.0625 -13.265625 L 4.03125 0 L 1.75 0 L 1.75 -17.765625 L 4.03125 -17.765625 L 10.9375 -4.515625 L 10.96875 -17.765625 L 13.25 -17.765625 Z M 13.25 0" transform="translate(212.93 237.615)"/></g></g></g><g fill="#00C2CB"><g><g><path d="M 13.609375 -2.328125 C 12.867188 -1.453125 12.015625 -0.800781 11.046875 -0.375 C 10.078125 0.0390625 9.015625 0.25 7.859375 0.25 C 7.128906 0.238281 6.457031 0.125 5.84375 -0.09375 C 5.226562 -0.3125 4.675781 -0.609375 4.1875 -0.984375 C 3.695312 -1.359375 3.269531 -1.800781 2.90625 -2.3125 C 2.539062 -2.832031 2.234375 -3.390625 1.984375 -3.984375 C 1.734375 -4.578125 1.546875 -5.203125 1.421875 -5.859375 C 1.296875 -6.515625 1.226562 -7.175781 1.21875 -7.84375 L 1.21875 -9.90625 C 1.226562 -10.5625 1.285156 -11.21875 1.390625 -11.875 C 1.503906 -12.53125 1.675781 -13.15625 1.90625 -13.75 C 2.132812 -14.351562 2.414062 -14.914062 2.75 -15.4375 C 3.09375 -15.957031 3.503906 -16.40625 3.984375 -16.78125 C 4.460938 -17.15625 5 -17.453125 5.59375 -17.671875 C 6.195312 -17.890625 6.875 -18 7.625 -18 C 8.457031 -18 9.222656 -17.867188 9.921875 -17.609375 C 10.617188 -17.359375 11.226562 -16.992188 11.75 -16.515625 C 12.269531 -16.046875 12.6875 -15.472656 13 -14.796875 C 13.320312 -14.128906 13.519531 -13.378906 13.59375 -12.546875 L 11.359375 -12.546875 C 11.265625 -13.066406 11.125 -13.539062 10.9375 -13.96875 C 10.75 -14.40625 10.503906 -14.773438 10.203125 -15.078125 C 9.898438 -15.390625 9.535156 -15.632812 9.109375 -15.8125 C 8.691406 -15.988281 8.203125 -16.078125 7.640625 -16.078125 C 7.097656 -16.078125 6.617188 -15.984375 6.203125 -15.796875 C 5.796875 -15.617188 5.4375 -15.375 5.125 -15.0625 C 4.8125 -14.757812 4.550781 -14.398438 4.34375 -13.984375 C 4.144531 -13.578125 3.976562 -13.144531 3.84375 -12.6875 C 3.71875 -12.226562 3.625 -11.765625 3.5625 -11.296875 C 3.507812 -10.828125 3.484375 -10.375 3.484375 -9.9375 L 3.484375 -7.84375 C 3.492188 -7.394531 3.53125 -6.929688 3.59375 -6.453125 C 3.664062 -5.984375 3.773438 -5.519531 3.921875 -5.0625 C 4.066406 -4.601562 4.253906 -4.171875 4.484375 -3.765625 C 4.710938 -3.359375 4.988281 -3 5.3125 -2.6875 C 5.632812 -2.382812 6.003906 -2.140625 6.421875 -1.953125 C 6.847656 -1.773438 7.332031 -1.679688 7.875 -1.671875 C 8.175781 -1.660156 8.492188 -1.671875 8.828125 -1.703125 C 9.171875 -1.734375 9.5 -1.796875 9.8125 -1.890625 C 10.132812 -1.992188 10.429688 -2.128906 10.703125 -2.296875 C 10.984375 -2.460938 11.21875 -2.679688 11.40625 -2.953125 L 11.4375 -6.9375 L 7.8125 -6.9375 L 7.8125 -8.84375 L 13.578125 -8.84375 Z M 13.609375 -2.328125" transform="translate(231.67 237.615)"/></g></g></g></svg>