<svg width="24" height="22" viewBox="0 0 24 22" fill="none" xmlns="http://www.w3.org/2000/svg">
<path fill-rule="evenodd" clip-rule="evenodd" d="M1.76752 6.02098C0.257124 6.70207 -0.415156 8.47862 0.265935 9.98901L2.31874 14.5413L2.89395 13.8487C3.26729 14.1474 3.66729 14.3927 4.09395 14.5847C4.53129 14.766 4.94195 14.8567 5.32595 14.8567C5.74195 14.8567 6.04062 14.7927 6.22195 14.6647C6.41395 14.5367 6.50995 14.3554 6.50995 14.1207C6.50995 13.9927 6.47795 13.886 6.41395 13.8007C6.34995 13.7154 6.25395 13.6354 6.12595 13.5607C6.00862 13.486 5.86462 13.4167 5.69395 13.3527C5.52329 13.278 5.32595 13.198 5.10195 13.1127L3.80595 12.5687C3.52862 12.462 3.26195 12.3234 3.00595 12.1527C2.74995 11.9714 2.52595 11.7634 2.33395 11.5287C2.14195 11.2834 1.98729 11.006 1.86995 10.6967C1.76329 10.3874 1.70995 10.046 1.70995 9.67271C1.70995 9.22471 1.80595 8.80871 1.99795 8.42471C2.18995 8.03004 2.45662 7.68871 2.79795 7.40071C3.13929 7.10204 3.54462 6.86738 4.01395 6.69671C4.49395 6.52604 5.01662 6.44071 5.58195 6.44071C6.17929 6.44071 6.78195 6.55271 7.38995 6.77671C8.00862 7.00071 8.55795 7.35271 9.03795 7.83271L7.66195 9.56071C7.30995 9.31538 6.96862 9.12871 6.63795 9.00071C6.31795 8.87271 5.96595 8.80871 5.58195 8.80871C5.24062 8.80871 4.97395 8.86738 4.78195 8.98471C4.58995 9.10204 4.49395 9.27804 4.49395 9.51271C4.49395 9.75804 4.62729 9.95004 4.89395 10.0887C5.17129 10.2167 5.54995 10.3714 6.02995 10.5527L7.29395 11.0487C7.94462 11.3047 8.44595 11.662 8.79795 12.1207C9.14995 12.5794 9.32595 13.1714 9.32595 13.8967C9.32595 14.334 9.23529 14.7554 9.05395 15.1607C8.87262 15.566 8.60595 15.9234 8.25395 16.2327C7.91262 16.5314 7.49129 16.7714 6.98995 16.9527C6.48862 17.134 5.91262 17.2247 5.26195 17.2247C4.65788 17.2247 4.03601 17.1268 3.39635 16.931L4.78776 20.0166C5.46885 21.527 7.2454 22.1993 8.75579 21.5182L18.7029 17.0327H17.6532L16.8532 12.9047C16.7679 12.4994 16.6932 12.0887 16.6292 11.6727C16.5759 11.2567 16.5225 10.8567 16.4692 10.4727H16.4052C16.3519 10.8567 16.2932 11.2567 16.2292 11.6727C16.1759 12.0887 16.1065 12.4994 16.0212 12.9047L15.2532 17.0327H11.8292L10.0052 6.63271H12.8212L13.3972 11.1767C13.4505 11.7207 13.5092 12.2647 13.5732 12.8087C13.6372 13.3527 13.6959 13.8967 13.7492 14.4407H13.8132L14.1012 12.8087L14.3892 11.1767L15.3812 6.63271H17.6852L18.6772 11.1767C18.7732 11.6994 18.8692 12.238 18.9652 12.7927C19.0612 13.3367 19.1572 13.886 19.2532 14.4407H19.3172C19.3705 13.886 19.4292 13.3367 19.4932 12.7927C19.5572 12.2487 19.6159 11.71 19.6692 11.1767L20.2452 6.63271H20.6919L18.498 1.76752C17.8169 0.257124 16.0403 -0.415156 14.5299 0.265935L1.76752 6.02098ZM22.2829 10.1611L21.3387 15.8441L21.5182 15.7632C23.0286 15.0821 23.7009 13.3055 23.0198 11.7951L22.2829 10.1611Z" fill="#003DFF"/>
</svg>
